<svg xmlns="http://www.w3.org/2000/svg" width="36" height="39.827" viewBox="0 0 36 39.827"><defs><style>.a{fill:#fff;}</style></defs><path class="a" d="M2.717,39.826C.9,39.787.094,38.608.01,36.811A8.246,8.246,0,0,1,.382,33.92c.185-.641.351-.868.929-.992.455-.083.414.392.311.951a10.987,10.987,0,0,0-.247,3.242c.081,1.486.764,2.065,1.507,2.065C4,39.208,4.491,38.28,4.7,36.939a3.865,3.865,0,0,0-.056-1.923,6.407,6.407,0,0,1-.281-.921,1.081,1.081,0,0,1,.589-1.249c.372-.1.517.083.66.517a8.913,8.913,0,0,1,.14,2.766c-.081,1.677-.912,3.7-2.971,3.7Zm28.33-2.133a3.067,3.067,0,0,1-2.623,2.045,1.475,1.475,0,0,1-1.566-1.673,2.2,2.2,0,0,1,1.835-2.416,1.287,1.287,0,0,1,1.179,1.239c0,1.385-1.819,1.444-1.819,1.714s.475.372.743.372c1.158,0,1.934-1.561,2.19-2.623.045-.184.206-.579.527-.573.372,0,.208,2.335.725,2.335.315,0,.728-2.912,2.669-2.912.66,0,1.093.367,1.093.843a.6.6,0,0,1-.6.621c-.743,0-.559-.562-.867-.562-.828,0-1.427,1.59-2.045,2.976-.247.556-.393.66-.6.66C31.378,39.739,31.255,38.313,31.047,37.694Zm-2.623-1.217c-.785,0-.722,1.278-.6,1.583A1.326,1.326,0,0,0,28.88,37.3c.107-.311-.021-.825-.455-.825Zm-9.6,2.765a2.373,2.373,0,0,1-1.384.476c-.763,0-1.094-.785-1.4-.785-.372,0-.784.806-2.024.806-.992,0-1.158-1.322-1.508-1.322-.31,0-.785,1.322-1.3,1.322-.87,0-1.054-2.293-1.826-2.293-.6,0-2.491,2.328-3.005,2.274-.206-.021-.294-.176-.271-.382.029-.281.281-1.051.375-1.4.167-.628.32-1.316.406-1.537a.549.549,0,0,1,.5-.362c.094.01.121.183.15.325.1.511.25,1.032.414,1.032.289,0,1.247-1.839,1.805-1.839.683,0,.764,2.893,1.693,2.893.311,0,.538-.372.745-.828.021-.766.228-1.857.843-1.857.434,0,.641.969.33,1.817a1.1,1.1,0,0,0,1.1,1.253,1.457,1.457,0,0,0,1.264-.771,7.75,7.75,0,0,1-.434-2c-.122-2,.649-3.886,1.493-3.934.618-.038,1.114.549,1.17,1.5a7.233,7.233,0,0,1-1.094,4.435A1.478,1.478,0,0,0,18.082,39a.8.8,0,0,0,.517-.187,2.028,2.028,0,0,1-.084-.6c0-1.447.93-2.669,1.736-2.669.639,0,1.011.843,1.011,1.4,0,.66-.562,1.2-1.384,1.715a.991.991,0,0,0,.641.247c1.179,0,1.8-1.425,2.248-2.727.083-.249.229-.6.517-.6.5,0,.7,3.263,1.527,3.263.353,0,.641-.724.641-1.28,0-.413-.14-.454-.14-1.054,0-.66.351-1.217.828-1.217.289,0,.393.281.393.638,0,1.322-.951,3.78-2.355,3.78-1.055,0-.972-1.818-1.343-1.818-.421,0-.993,1.839-3.037,1.839A1.313,1.313,0,0,1,18.827,39.242Zm.492-1.84a1.283,1.283,0,0,0,.268.87,1.065,1.065,0,0,0,.763-1.094v0c0-.35-.185-.639-.412-.639C19.75,36.535,19.318,36.74,19.318,37.4ZM16.8,33.355c-.412.025-.6,1.319-.518,2.68.053.886.187,1.023.309,1.014.228-.008.774-1.594.694-2.877-.034-.552-.162-.819-.445-.819Zm-3.615.591a.606.606,0,0,1-.621-.621.82.82,0,0,1,.722-.929.607.607,0,0,1,.641.562v0a.868.868,0,0,1-.729.984Zm-.68-5.742c-.538-.24-1.358.23-2.51-1.052a2.715,2.715,0,0,0,.527.045c1.007,0,1.545-.493,1.545-1.283a2.823,2.823,0,0,0-.023-.306,2.175,2.175,0,0,1,1.173,1.578c.022.11.471.208.756.208a.891.891,0,0,0,.975-.811,2.458,2.458,0,0,0,2.388-1.874,2.6,2.6,0,0,1,1.139.8,1.977,1.977,0,0,1,.657-.1,4.186,4.186,0,0,1,1.217.208c.023-.14.043-.319.263-.319.329,0,.242.362.351.57.055.11.33.176.33.395a.281.281,0,0,1-.281.281.473.473,0,0,1-.132-.023c-.218.077-.229,1.655-1.151,1.655a1.848,1.848,0,0,1-1.578-1.264.469.469,0,0,0-.395-.34c-.174,0-.274.034-.482.264a3.811,3.811,0,0,1-2.794,1.2c-.372,0-.669-.032-.745-.032-.045,0-.045.01-.045.021,0,.077.372.374,1.184.374,1.929,0,2.4-1.086,2.707-1.086a.254.254,0,0,1,.251.176,2.13,2.13,0,0,0,2.034,1.3,5.192,5.192,0,0,0,.663-.044c.164,0,.176.1.176.164,0,.242-.538.538-1.491.538a.965.965,0,0,1-1-.625,4.329,4.329,0,0,1-2.2.669C13.769,29.5,13.2,28.516,12.5,28.205Zm6.514-1.6h0a.438.438,0,1,0,.438-.441A.438.438,0,0,0,19.019,26.606ZM21.3,27.746a2.471,2.471,0,0,1,.6-1.5c.121-.142.242-.251.351-.251a2.713,2.713,0,0,0,.943.185,3.23,3.23,0,0,0,2.06-.711l.007,0c.253,0,.6.244.6.836,0,1.041-1.534,2.322-3.585,2.322A.9.9,0,0,1,21.3,27.746Zm1.881-.722a2.56,2.56,0,0,1-.155.8,2.124,2.124,0,0,0,1.2-.35.958.958,0,0,0,.5-.811c0-.2-.066-.23-.121-.23h0a2.476,2.476,0,0,1-1.305.34h-.14A2.094,2.094,0,0,1,23.184,27.024ZM6.416,23.93a1.6,1.6,0,0,1,.943-1.558,2.387,2.387,0,0,0,2.225,3.186c.882,0,1.3-.449,1.3-1.226A1.629,1.629,0,0,0,9.331,22.6c-.493,0-.833.285-.833.679a1.073,1.073,0,0,0,1.1,1.075c.372,0,.614-.153.614-.406a.252.252,0,0,0-.034-.131.605.605,0,0,1-.242.043c-.448,0-.811-.264-.811-.527a.322.322,0,0,1,.34-.338,1.212,1.212,0,0,1,1.107,1.172.923.923,0,0,1-.975.943A1.815,1.815,0,0,1,7.742,23.3,1.323,1.323,0,0,1,9.113,22a2.526,2.526,0,0,1,2.345,2.81,1.784,1.784,0,0,1-1.995,1.853A3.056,3.056,0,0,1,6.416,23.93Zm6.247,1.229c0-.066.043-.1.121-.1a5.67,5.67,0,0,0,.733.066c1.2,0,.783-1.634,1.906-1.634a.806.806,0,0,1,.614.329.5.5,0,0,0,.121-.317c0-.187-.121-.33-.117-.506a.281.281,0,0,1,.281-.308c.209,0,.319.187.34.382a.318.318,0,0,1,.242-.108.348.348,0,0,1,.351.361.378.378,0,0,1-.155.3.331.331,0,0,1,.209.308.3.3,0,0,1-.308.306c-.164,0-.263-.2-.438-.2a.319.319,0,0,0-.251.111,1.16,1.16,0,0,1,.1.448c0,.856-1.084,1.545-2.214,1.545S12.664,25.44,12.664,25.16Zm13.678.119c0-.077.032-.176.251-.263a2.567,2.567,0,0,0,1.653-1.876.194.194,0,0,0-.2-.218c-.185,0-.983,1.818-1.871,1.818-.615,0-1.24-.562-1.24-.82,0-.44,1.777-1.25,1.777-1.864,0-.229-.11-.246-.2-.246-.23,0-1.5,1.7-2.324,1.7-.2,0-.362-.374-.362-.657,0-.153.1-.263.451-.34,1.884-.422,1.467-1.842,3.077-1.842a1.84,1.84,0,0,1,1.875,1.967c0,1.447-2.059,3.244-2.367,3.244C26.615,25.882,26.341,25.521,26.341,25.279Zm1.04-3.726a.691.691,0,0,0,.395.6.66.66,0,0,0,.316.089c.319,0,.572-.089.572-.351,0-.337-.5-.754-.965-.754v-.006C27.545,21.132,27.381,21.253,27.381,21.553Zm-3.868,4.16c-.593,0-1.075-.214-1.075-.422v-.5c0-.155.427-.515,1.228-.515.659,0,1.138.185,1.138.5v.251a.4.4,0,0,1-.108.319,1.827,1.827,0,0,1-1.1.369Zm-2.992-.895a3.093,3.093,0,0,1-3.145-3.157,3.231,3.231,0,0,1,3.244-3.2c.482,0,.889.163.889.372,0,.287-.714.111-.768.447.5.066.625.242.625.385,0,.24-.219.318-.428.318-.153,0-.329-.034-.514-.034a.832.832,0,0,0-.68.281c.14.023.351.121.351.34,0,.636-1.765.11-1.765,1.743a2.091,2.091,0,0,0,2.258,1.808c.7,0,1.152-.23,1.152-.493,0-.209-.374-.066-.374-.242,0-.077.132-.221.132-.34,0-.053-.044-.153-.132-.153a4.364,4.364,0,0,1-1.326.317c-.593,0-1.173-.339-1.173-.8,0-.1.044-.155.11-.155s.153.045.23.045.076-.045.076-.164,0-.461.208-.461a3.283,3.283,0,0,0,2.117.767,3.494,3.494,0,0,0,1.84-.421,2.848,2.848,0,0,1-2.847,2.8Zm-8.557-.912a2.437,2.437,0,0,1-.4-1.194c-.091-.56-.528-1.031-1.4-1.25v0c-.7-.176-.8-.306-.8-.5,0-.308.428-.515.811-.515a1.381,1.381,0,0,1,1.294.7c.333.493.388,1.315.562,1.468a.528.528,0,0,0,.33.1c.107,0,.205-.011.281-.011a1.5,1.5,0,0,1,1.326,1.281c0,.362-.317.493-.712.493A1.9,1.9,0,0,1,11.964,23.906Zm.426-.538c0,.2.493.549.822.549.164,0,.219-.1.219-.176,0-.285-.493-.625-.767-.625h-.009A.266.266,0,0,0,12.39,23.368ZM4.083,20.342c0-1.874,1.644-2.97,1.644-3.748a.5.5,0,0,0-.2-.4c-.361-.308-.372-.562-.656-.562-.209,0-.461.482-.2.909a.706.706,0,0,1,.164.362c0,.306-.482,1.124-.822,1.124s-.6-.843-.6-2.2c0-1.205.274-2.422.614-2.422.1,0,.131.066.131.155,0,.14-.043.421-.043.909,0,.528.121.572.219.572.372,0,.3-2.28.9-2.28.14,0,.185.14.185.319,0,.514-.251,1.264-.251,1.686,0,.208.055.274.153.274.264,0,.723-2.511,1.173-2.511.14,0,.208.14.208.281,0,.527-.669,2.038-.669,2.466,0,.066.023.121.077.121.274,0,.822-1.183,1-1.774.1-.308.23-.472.351-.472s.208.121.208.372a9.292,9.292,0,0,1-1.031,2.916,7.334,7.334,0,0,0-.952,2.345,1.164,1.164,0,0,0,.482.975c-.7-.043-.983-.11-1.249-.657C3.743,21.428,7.075,21.2,5.934,23.269,5.726,22.9,4.083,22.513,4.083,20.342Zm7.933.1c0-.3.077-.625.264-.625.164,0,.219.131.35.263a2.288,2.288,0,0,0,1.809.625c.7,0,1.217-.282,1.217-.583,0-.493-1.02-.5-1.02-1.249A1.709,1.709,0,0,1,15,18.033a1.189,1.189,0,0,0,.823,1.052,1.4,1.4,0,0,1,1.106,1.491,2.239,2.239,0,0,1-2.466,2.214A2.5,2.5,0,0,1,12.016,20.445Zm3.157,1c0,.14-.032.327-.032.421,0,.132.023.209.176.209a1.4,1.4,0,0,0,1.018-1.239c0-.153-.087-.218-.187-.218s-.185.183-.448.3v0C15.323,21.086,15.173,21.055,15.173,21.441Zm5.851.475a.482.482,0,0,1-.482-.493c0-.187.076-.362.076-.527a.436.436,0,0,0-.14-.327.955.955,0,0,1,1.062.822.51.51,0,0,1-.51.525ZM7,21.3a.9.9,0,0,1-.362.109.715.715,0,0,1-.789-.614.737.737,0,0,1,.615-.8l.11-.015a.743.743,0,0,1,.54-1.016.74.74,0,0,1,.83.544.7.7,0,0,1,.362-.149.714.714,0,0,1,.766.642.728.728,0,0,1-.629.777.364.364,0,0,1-.093.013.8.8,0,0,1,.065.253.692.692,0,0,1-.634.775A.674.674,0,0,1,7,21.3ZM7.432,20a.421.421,0,1,0,.045,0Zm16.777,1.6a.655.655,0,0,1-.2-.478c0-.317.209-.6.209-.909a.654.654,0,0,0-.111-.351c.822.055,1.347.548,1.347,1.128a.757.757,0,0,1-.756.79h-.035A.655.655,0,0,1,24.209,21.6Zm-2.427-.927c0-.459.36-.943.36-1.413a.843.843,0,0,0-.208-.559,2.027,2.027,0,0,1,1.776,1.9.99.99,0,0,1-.965,1.073A.926.926,0,0,1,21.782,20.677Zm.783-.836c-.007.1-.06.233-.06.322a.263.263,0,0,0,.263.281.3.3,0,0,0,.281-.329c0-.23-.208-.548-.406-.548C22.554,19.567,22.587,19.7,22.565,19.841Zm5.5-.253a.726.726,0,0,1,.723-.767,1.111,1.111,0,0,1,.823.3.97.97,0,0,1-.3-.7.752.752,0,0,1,.75-.8c.548,0,.983.712.983,1.545a3.448,3.448,0,0,1-1.158,2.5C29.881,20.191,28.065,20.661,28.065,19.588Zm-1.725.038c-.153,0-.421.361-.538.361a.062.062,0,0,1-.055-.066c0-.251.406-.822.406-1.381,0-.263-.032-.833-.351-.833-.263,0-.562.421-.691.833-.076.242-.021,1.173-.2,1.173s-.121-.625-.341-.625c-.162,0-.513.3-.634.3-.021,0-.044-.011-.044-.034,0-.131.319-.562.319-.646,0-.164-.725-.185-.725-.317,0-.077.281-.132.549-.176.562-.1,1.38-.5,1.38-1.073,0-.635-.615-.91-1.019-1.173-.208-.132-.438-.24-.438-.329s.264-.087.372-.087c.164,0,.327-.011.327-.14,0-.1-.023-.3-.023-.45,0-.109.011-.2.056-.2.164,0,.395.537.5.537.174,0,.422-.438.582-.438.053,0,.076.034.076.132,0,.4-.206.863-.206,1.257,0,.274.087.591.361.591.23,0,.428-.35.428-.733,0-.44-.077-.778-.077-.954,0-.077.034-.11.077-.11.164.011.318.459.493.459.2,0,.492-.361.613-.361.032,0,.043.043.043.055,0,.164-.253.527-.253.669,0,.119.636.14.636.251,0,.164-.666.164-.983.308s-.493.295-.493.514.219.263.527.263a4.366,4.366,0,0,0,1.412-.393.052.052,0,0,1,.055.055c0,.109-.374.471-.374.635,0,.187.68.4.67.516-.011.032-.056.043-.132.043-.121,0-.308-.034-.449-.034a.254.254,0,0,0-.2.055c-.076.089.023.669-.131.669s-.516-1.292-1.357-1.292c-.121,0-.209.1-.209.263a1.648,1.648,0,0,0,.834,1.183c.184.121.49.242.49.308,0,.131-.7.011-.7.23,0,.2.089.493.089.669,0,.055-.011.119-.077.119C26.812,20.227,26.493,19.626,26.34,19.626ZM12.166,18.152a1.871,1.871,0,0,1,.58-1.347,1.571,1.571,0,0,0,.811.438c.2,0,.253-.087.253-.219,0-.4-1.607-.774-1.607-1.639v0c0-.7,1.666-1.075,1.666-1.94a1.441,1.441,0,0,0-.153-.582,1.763,1.763,0,0,1,1.007,1.294c0,.756-.788,1.107-.788,1.578,0,.548.843.636.843,1.315,0,.562-.8,1.205-.8,1.929a1.094,1.094,0,0,0,1,1.1,2.556,2.556,0,0,1-.562.077A2.235,2.235,0,0,1,12.166,18.152Zm-2.3,1.517a.82.82,0,0,1-.255-.575.56.56,0,0,1,.263-.5c.032,0,.044.021.043.1a.358.358,0,0,0,.372.351.365.365,0,0,0,.383-.372c0-.91-1.852-2.5-1.852-4.68A2.468,2.468,0,0,0,8.6,15c0,1.051.767,2.149.767,3.133a.751.751,0,0,1-.712.767A.593.593,0,0,1,8.03,18.3c0-.155.059-.3.11-.3s.018.23.281.23.361-.187.361-.527c0-.909-.525-1.557-.525-2.5a2.013,2.013,0,0,1,.032-.438,1.928,1.928,0,0,0-.317,1.25v1.124c0,.754-.382,1.1-.843,1.1a.6.6,0,0,1-.594-.642c0-.055.034-.251.1-.251.089,0,.155.229.406.229.482,0,.516-.471.516-1.413a3.768,3.768,0,0,1,1.9-3.255,2.584,2.584,0,0,0-.281,1.228c0,1.863,2.248,3.606,2.248,4.755a.971.971,0,0,1-.964,1h-.023A.82.82,0,0,1,9.864,19.669Zm11.654-1.913c0-.306.316-.612.316-.8,0-.055-.041-.14-.173-.14-.406,0-.516,1.073-1.951,1.194a1.1,1.1,0,0,0,.422-.909c0-.23-.055-.422-.055-.669,0-.329.153-.494.372-.494.406,0,.6.57.867.57a.316.316,0,0,0,.3-.329c0-.833-1.6-.712-1.6-1.885a2.852,2.852,0,0,1,.412-1.256c.121.931,1.371.461,1.371,1.589,0,.164-.045.406-.045.614,0,.242.023.45.207.45s.23-.131.23-.308-.043-.393-.043-.514a.421.421,0,0,1,.438-.471c.422,0,.735.421,1.36.421-.14.7-1.59.514-1.59,1.283,0,.383.383.471.636.471.23,0,.308-.034.308-.23,0-.11-.023-.23-.023-.306a.087.087,0,0,1,.089-.089c.242,0,1.423.9,1.423,1.173,0,.251-1.247.5-1.61.5a.118.118,0,0,1-.132-.121c0-.077.187-.308.187-.438,0-.1-.164-.164-.6-.164-.208,0-.361.023-.361.187,0,.295.482.657.482.93,0,.221-.131.351-.482.351C21.966,18.37,21.518,18.14,21.518,17.756Zm6.3-2.926c-.767-.613-2.107-.281-2.107-1.426,0-.306.2-.745.2-1.1a.513.513,0,0,0-.087-.317c1.052.395.68,1.1,1.328,1.819A5.768,5.768,0,0,1,29.317,16.6a2,2,0,0,0,.023-.295c0-1.623-2.147-3.211-2.334-3.869,1.248.14,1.467.449,2.06,2.093a7.35,7.35,0,0,1,.507,1.607,6.655,6.655,0,0,1,.754-1.524c-.36-.185-1.314-.58-1.314-1.226a1.7,1.7,0,0,1,1.138-1.349c.087,0,.11.077.11.219,0,.395-.187,1.03-.187,1.37,0,.308.2.6.374.6a1.587,1.587,0,0,0,.7-1.305,1.477,1.477,0,0,0-1.336-1.514,6.387,6.387,0,0,1-2.093.482c-2.356,0-2.894-2.334-2.894-3.353,0-.044.011-.055.023-.055a1.673,1.673,0,0,0,1.031.281c.384,0,.735-.1,1.294-.1,1.313,0,1.9.909,2.707,2.071a2.557,2.557,0,0,1,1.663,2.192c0,1.228-1.305,1.906-1.62,3.221.5-.053.8-.953,1.314-.953.263,0,.383.208.383.537a2.388,2.388,0,0,1-.8,1.655.71.71,0,0,0,.011-.164c0-.306-.121-.745-.472-.745-.547,0-.722.591-1.028,1.085A5.2,5.2,0,0,0,27.819,14.83Zm.332-4.177c0,.14-.372.393-.372.6a.111.111,0,0,0,.1.121c.2,0,.459-.514.833-.514.14,0,.351.055.461.055a.116.116,0,0,0,.121-.091c0-.229-.582-.251-.636-.9-.011-.1-.044-.274-.164-.274-.2,0-.045.6-.264.6-.5,0-.667-.983-.854-.983-.043,0-.1.032-.1.164s.022.2.022.339-.034.242-.164.242c-.3,0-.562-.69-.812-.69a.1.1,0,0,0-.11.087c0,.132.219.372.219.493,0,.264-.712.121-.712.34,0,.1.1.132.229.132.232,0,.593-.1.78-.1.11,0,.274.021.274.163s-.395.351-.395.493a.111.111,0,0,0,.121.1c.3,0,.82-.514,1.193-.514C27.986,10.521,28.151,10.553,28.151,10.653ZM11.239,16.886c-.07-.166-.6-.5-.632-.7a.252.252,0,0,0,.046-.183c0-.306-.482-.657-.482-1.139a.232.232,0,0,0,.109-.208c0-.274-.281-.812-.281-1.173.121,0,.187-.011.2-.187a1.757,1.757,0,0,1,.438-1.205,2.071,2.071,0,0,0-.308-.021,2.36,2.36,0,0,0-2.06,1.238,2.148,2.148,0,0,1-.034-.361,1.456,1.456,0,0,1,.746-1.326,1.366,1.366,0,0,1,.58-.1,7.235,7.235,0,0,1,1.2.153,2,2,0,0,0-1.415-.856.414.414,0,0,0-.448.263,1.978,1.978,0,0,1-.034-.372c0-.537.176-.843.636-.843.679,0,1.26.811,1.61,1.566,0-1.149.023-1.721.493-1.721.263,0,.756.472.886.948a.936.936,0,0,0-.164-.021c-.351,0-.552.35-.833.941a3.493,3.493,0,0,1,1.9-.777A.926.926,0,0,1,14.4,11.7a1.367,1.367,0,0,1-.251.7c-.089-.493-.493-.711-1.2-.711a3.883,3.883,0,0,0-1.264.218c1.238.175,1.425.625,1.425,1.031,0,.694-.691,1.034-1.152,1.264a2.8,2.8,0,0,0,.077-.624,1.612,1.612,0,0,0-.778-1.349c-.1.45-.448.723-.448,1.073a.154.154,0,0,0,.153.176c0,.2-.089.759-.089.9,0,.295.069.351.209.383.087.251.09.674.15.9a.2.2,0,0,0,.211.161,1.6,1.6,0,0,0,.406.7.263.263,0,0,1,.1.176c0,.2-.3.421-.483.421C11.417,17.122,11.323,17.089,11.239,16.886Zm13.086-3.064a.421.421,0,1,1,.421.422A.421.421,0,0,1,24.325,13.822Zm-.966.336a.757.757,0,1,1,.758-.757.757.757,0,0,1-.758.757Zm-1.515-1.022a.438.438,0,1,1,.167.033A.438.438,0,0,1,21.844,13.136Zm2.656-.19a.516.516,0,1,1,.2.04A.515.515,0,0,1,24.5,12.945ZM3.2,11.6a1.148,1.148,0,0,0,1.031.651,4.8,4.8,0,0,0,1.052-.164,2.45,2.45,0,0,1-1.381.735C3.453,12.819,3.2,12.427,3.2,11.6Zm18.374,1.133h0ZM20.1,12a.625.625,0,1,1,.626.624A.63.63,0,0,1,20.1,12Zm2.9-.142a.438.438,0,1,1,.439.436h0A.438.438,0,0,1,23.009,11.855ZM5.7,11.86a.644.644,0,0,1-.2-.474,1.042,1.042,0,0,1,.77-.918,1.487,1.487,0,0,0-.078.5,1.274,1.274,0,0,0,.422.952.713.713,0,0,1-.422.11l-.046,0A.645.645,0,0,1,5.7,11.86ZM20.1,12h0Zm1.381-.7v0a.669.669,0,1,1,.669.666A.665.665,0,0,1,21.486,11.3ZM6.68,10.819a2.075,2.075,0,0,1,.494-1.264,1.62,1.62,0,0,1,1.217,1.417A.83.83,0,0,1,7.6,11.9.985.985,0,0,1,6.68,10.819Zm16.329,1.035h0ZM3.195,11.591h0s0,0,0,.006Zm.378-.811a.916.916,0,0,1,.01-.164,1.308,1.308,0,0,0,1.107.471,2.369,2.369,0,0,0,.393-.032,1.177,1.177,0,0,1-.875.527C3.845,11.582,3.573,11.3,3.573,10.781Zm20.861.731a.46.46,0,1,1,.175.035A.46.46,0,0,1,24.434,11.512Zm-3.956-1.061a.438.438,0,1,1,.438.438A.439.439,0,0,1,20.477,10.451Zm2.22-.284h0a.7.7,0,1,1,.7.7A.7.7,0,0,1,22.7,10.168ZM29.01,8.14a2.525,2.525,0,0,0,2.26-1.184c.315.111.281.582.281,1.184,0,1.052-.114,2.387-.395,2.411h-.016A3.891,3.891,0,0,1,29.01,8.14ZM3.9,10.3c-.045,0-.1.022-.185.022a.233.233,0,0,1-.208-.208.229.229,0,0,1,.032-.121h0c.153-.253.013-1.257.962-1.863a2.216,2.216,0,0,1,1.271-.351c.087,0,.175,0,.242.01a.976.976,0,0,1,.4.077c.09.09.035.259.176.45s.308.164.308.372a2.286,2.286,0,0,1-1.1,1.536,2.1,2.1,0,0,1-.92.263C4.459,10.486,4.16,10.3,3.9,10.3ZM4.35,9.116A.906.906,0,0,0,5.1,9.97c.2,0,.4-.11.4-.187,0-.021-.023-.032-.055-.055a1.247,1.247,0,0,1-.746-1c-.01-.077-.032-.111-.076-.111C4.514,8.622,4.35,8.9,4.35,9.116Zm1.37-.965c-.16,0-.281.022-.281.23,0,.329.306.909.691.909.174,0,.263-.2.263-.35,0-.077-.205-.2-.281-.308-.122-.169-.122-.384-.228-.437a.262.262,0,0,0-.147-.045Zm.544,2.312.007,0-.009,0Zm14.214-.013h0s0,0,0,0Zm1.325-.192a.421.421,0,1,1,.16.031A.422.422,0,0,1,21.8,10.259Zm-9.81-1.836A2.658,2.658,0,0,1,9.91,9.487,1.234,1.234,0,0,1,8.606,8.2c0-.187.066-.669.3-.669.273,0,.032.9.569.9.132,0,.372-.11.5-.471a2.062,2.062,0,0,0,.121-.648c0-.3-.066-.482-.281-.482a.852.852,0,0,0-.493.219,1.651,1.651,0,0,1,1.6-1.194c.865,0,1.326.767,1.326,1.621a2.076,2.076,0,0,1-.034.372A1.869,1.869,0,0,1,13.65,6.77c.723,0,1.052.625,1.052,1.326,0,.306-.087.757-.23.757s-.121-.253-.14-.483c-.023-.3-.077-.361-.176-.361-.187,0-.308.438-.308.843,0,.251.045.537.242.537a.4.4,0,0,0,.281-.121.984.984,0,0,1-.943.943C12.464,10.211,12.1,9.087,11.992,8.423Zm.983.736c-.006.23.049.329.115.329H13.1c.274,0,.58-1.052.58-1.71,0-.14-.021-.3-.087-.3C13.359,7.482,12.975,8.567,12.975,9.16Zm-2.69-.438c0,.076.023.164.121.164.372,0,.8-2.017.8-2.357,0-.087-.032-.153-.11-.153C10.757,6.375,10.285,8.293,10.285,8.721Zm2.029-.466c.023.395.089.57.2.57s.294-.378.294-.761h0c0-.187-.043-.23-.087-.23C12.61,7.834,12.489,7.966,12.314,8.255Zm-1.132.017c-.013.131.058.24.128.24.121,0,.281-.131.562-.448a2.749,2.749,0,0,0,.023-.44c0-.218-.087-.459-.219-.459C11.346,7.165,11.181,8.041,11.181,8.272ZM7.173,9.554h0Zm13.3-.16c-.253-.043-.482-.6-.482-1.194a1.744,1.744,0,0,1,.289-.992,1.158,1.158,0,0,0,.843.395c.121,0,.264-.032.341-.032s.164.043.164.119a.694.694,0,0,1-.242.422,1.1,1.1,0,0,0,.421.077,1.29,1.29,0,0,0,1.336-1.381,1.463,1.463,0,0,1,.209.7,1.571,1.571,0,0,1-1.686,1.654,2.389,2.389,0,0,1-.857-.174c-.2,0-.2.405-.33.405Zm3.049-.576.011,0a.485.485,0,1,1-.011,0ZM7.235,8.447a.438.438,0,1,1,.438.438A.44.44,0,0,1,7.235,8.447ZM23.664,6.014a.115.115,0,0,1,.069-.11h0a4.891,4.891,0,0,0,1.555-.34.591.591,0,0,1,.281-.077c.383,0,.281.438.636.438.274,0,.625-.23.834-.23.326,0,.8,1.031.8,1.513,0,.562-.843.9-1.84.9A2.34,2.34,0,0,1,23.664,6.014Zm1.118.559c0,.285.528.723,1.34.723.482,0,.843-.221.843-.351,0-.043-.066-.077-.209-.077a5.916,5.916,0,0,1-.965-.1c-.461-.076-.812-.251-.943-.251C24.8,6.519,24.782,6.54,24.782,6.573ZM6.665,7.464l-.007,0A.442.442,0,1,1,7.1,7.9h0A.438.438,0,0,1,6.665,7.464Zm-3.15-.017a.824.824,0,0,1-.241-.6.922.922,0,0,1,.58-.865,1.023,1.023,0,0,0-.011.185,1.275,1.275,0,0,0,.983,1.285,1.316,1.316,0,0,1-.709.238H4.1A.823.823,0,0,1,3.514,7.447ZM29.09,7.68c-.427,0-.723-.132-.717-.44a.419.419,0,0,1,.472-.382c1,0,1.916-.669,1.916-1.273a.478.478,0,0,0-.109-.35.667.667,0,0,1,.625.735A2.154,2.154,0,0,1,29.1,7.68ZM4.825,7.449l0,0v0ZM21.8,6.919a.176.176,0,0,1-.11-.164.439.439,0,0,1,.24-.346.842.842,0,0,0-.569-.219.882.882,0,0,0-.877.646,1,1,0,0,1-.077-.372,1.058,1.058,0,0,1,1.124-1.075,1.918,1.918,0,0,1,1.073.372c.1,0,.219-.11.306-.11.121,0,.121.187.121.319a1.792,1.792,0,0,1-.691,1.468A1.106,1.106,0,0,0,21.8,6.919ZM7.607,5.236c-.274,0-.646.69-1.052.69-.215,0-.281-.169-.281-.422,0-.317.1-.76.1-1.041,0-.153-.013-.329-.153-.329-.406,0-1.885,1.085-2.454,1.085-.121,0-.208-.055-.208-.176,0-.537,1.873-2.147,1.873-2.519,0-.341-2.147-.034-2.147-.362,0-.377,1.523-1.013,1.523-1.264S3.338.554,3.338.273c0-.187.35-.263,1-.263.538,0,1.929.142,1.929.461,0,.361-1.173.723-1.173,1.073,0,.417,1.645.166,1.645.538s-1.2,1.205-1.2,1.468c0,.043.055.066.1.066.284,0,1.03-.548,1.37-.548.131,0,.174.087.174.24C7.183,3.616,7,4.13,7,4.448c0,.077.023.164.109.164.24,0,.625-1.041.964-1.041.308,0,.034,1.568.351,1.568.274,0,.346-1.424.614-1.424s.409.8.69.8c.121,0,.132-.153.132-.4V3.735c0-.24.011-.4.131-.4.334,0,1.26,1.1,1.458,1.1.043,0,.055-.045.055-.077,0-.295-.625-1.292-.625-1.819,0-.176.066-.295.242-.295.383,0,1.194.449,1.566.449.121,0,.2-.045.2-.164,0-.449-1.337-1.37-1.337-1.732S13.036.053,14.054.053c.132,0,.395,0,.395.14,0,.268-1.264.509-1.569.83a.2.2,0,0,0-.063.14c.02.515,1.793,1.706,1.8,2.364,0,.142-.122.25-.329.248-.591,0-1.84-.593-2.269-.593-.121,0-.153.031-.153.14,0,.416.811,1.731.811,2.311,0,.16-.055.281-.208.281-.487,0-1.583-1.315-1.967-1.315-.35,0-.2,1.106-.525,1.106-.263,0-.493-.635-.778-.635s-.472,2.192-.92,2.192C7.748,7.263,7.957,5.236,7.607,5.236ZM6.033,7.208c-.756,0-1.621-.35-1.613-1.217a.728.728,0,0,1,.733-.745c.742,0,.983.8.983,1.326a2.143,2.143,0,0,1-.1.635Zm22.816-.767h.007Zm-.486-.24c-.1-.2-.066-.515-.253-.659a1.908,1.908,0,0,0,.538.055c.493,0,.965-.339,1.328-.339a.281.281,0,0,1,.316.306c-.007.481-.978.875-1.44.877A.472.472,0,0,1,28.363,6.2Zm-15.7-2.18h0a.062.062,0,0,1,.055-.065,6.442,6.442,0,0,1,1.9,1.37.461.461,0,0,1,.065.242c0,.329-.164.712-.383.712A5.984,5.984,0,0,1,12.664,4.021Zm9.282.555c-.142,0-.35.5-.48.5-.056,0-.077-.008-.1-.14-.032-.251-.066-.68-.242-.68-.153,0-.778.714-.986.712-.044,0-.055,0-.055-.056,0-.218.548-.989.548-1.215s-.746-.094-.746-.281c0-.23.746-.468.746-.778s-.712-.35-.712-.591c0-.131.669-.319.669-.516s-.68-.944-.68-1.217S20.925.8,21.19.8c.132,0,.132-.383.132-.5,0-.187.055-.3.109-.3.126,0,.389.433.562.421A8.066,8.066,0,0,1,23.551.06a2.442,2.442,0,0,1,2.669,2.52,2.5,2.5,0,0,1-2.577,2.575A4.267,4.267,0,0,1,21.945,4.576Zm.4-.727a.154.154,0,0,0-.041.116c0,.2.5.582,1.273.582a1.751,1.751,0,0,0,1.7-1.972c0-1.25-.646-1.995-1.731-1.995-.676,0-1.1.274-1.1.525,0,.155.132.176.242.176.216,0,.743-.208.843-.208.076,0,.119.021.119.076,0,.117-.23.383-.23.538,0,.208,1.205.066,1.205.274s-.886.395-.886.537.712.614.712.854c0,.045-.021.089-.1.089-.23,0-.669-.121-.965-.121-.066,0-.1.032-.1.077,0,.163.185.492.185.69,0,.066-.032.087-.076.087-.176,0-.7-.372-.943-.372h0A.153.153,0,0,0,22.348,3.848ZM21.014,1.981c0,.132.428.362.428.483,0,.076-.44.381-.451.471,0,.021.022.032.077.032.077,0,.329.011.461.011a.078.078,0,0,1,.077.089l.023.437c0,.055.021.1.053.1.105,0,.3-.45.422-.45.1,0,.438.153.525.153a.03.03,0,0,0,.034-.032c0-.1-.23-.406-.23-.482,0-.1.625-.089.625-.2,0-.087-.615-.218-.615-.306s.281-.383.281-.461c0-.023-.023-.032-.044-.032-.111,0-.393.164-.516.164s-.253-.582-.33-.582c-.107,0-.131.614-.271.614-.166,0-.374-.044-.494-.044C21.035,1.949,21.014,1.96,21.014,1.981Zm5.122,2.8c-.087-.01-.109-.032-.109-.087,0-.141.78-.219.78-.92a5.507,5.507,0,0,0-.089-.636.086.086,0,0,1,.089-.087c.164,0,.493.635,1.106.635a.521.521,0,0,0,.565-.563c0-.777-1.862-.975-1.862-1.151,0-.14,1.04-.383,1.576-.395C27.37.53,26.2.639,26.2.457A3.386,3.386,0,0,1,27.884.128C28.562.128,29.2.281,29.2.8c0,.281-.23.582-.23,1.019a.406.406,0,0,0,.44.449c.34,0,.422-.361.422-.745,0-.317-.055-.562-.055-.712A.729.729,0,0,1,30.54.041C30.914.041,31,.2,31.549.2a.843.843,0,0,0-.4.648,11.951,11.951,0,0,1,.3,1.721c0,1.731-1.623,2.345-3.606,2.345A11.2,11.2,0,0,1,26.136,4.785ZM30.328,2.02c0,.975-.711,1.72-1.995,1.927.14.011.281.011.406.011,1.5,0,2.05-.679,2.05-1.249a.7.7,0,0,0-.461-.7ZM30.339.5a.271.271,0,0,0-.077.2.281.281,0,1,0,.274-.281h0A.272.272,0,0,0,30.339.5Zm-27,3.1a.975.975,0,0,1,.219-.625,1.226,1.226,0,0,1,.722-.2c.148-.006.323.027.323.115V2.9a2.1,2.1,0,0,1-1.124.952C3.375,3.849,3.344,3.719,3.344,3.6Zm11.271-.069v0S14.615,3.53,14.615,3.529ZM8.226,2.107c-.351,0-.723.562-.943.562-.055,0-.109-.023-.109-.089,0-.216.591-.709.591-.983,0-.142-.142-.174-.3-.174-.274,0-.657.108-.9.108-.111,0-.2-.032-.2-.108,0-.23,1.107-.34,1.107-.724,0-.362-.514-.308-.514-.44,0-.1.4-.176.843-.176.729,0,.6.615,1.151.615S9.408.107,10.121.107c.449,0,.778.066.778.132,0,.153-.537.139-.537.479s.975.625.975.888c0,.076-.066.1-.132.1-.185,0-.525-.153-.777-.153a.274.274,0,0,0-.308.281c0,.3.329.778.329,1.007a.125.125,0,0,1-.121.132c-.263,0-.546-.843-.931-.843-.471,0-.34,1.217-.657,1.217S8.806,2.107,8.226,2.107Zm5.249-.745V1.357c0-.132.461-.23.827-.225.281,0,.422.011.422.338,0,.264-.055.516-.24.516C14.165,1.986,13.474,1.559,13.474,1.363Z" transform="translate(0)"/></svg>